<svg xmlns="http://www.w3.org/2000/svg" xmlns:xlink="http://www.w3.org/1999/xlink" width="500" zoomAndPan="magnify" viewBox="0 0 375 374.999991" height="500" preserveAspectRatio="xMidYMid meet" version="1.0"><path fill="#000000" d="M 187.5 0 C 84.105469 0 0 84.105469 0 187.5 C 0 221.558594 9.277344 254.152344 26.125 282.714844 L 49.4375 259.277344 C 37.964844 237.304688 31.25 213.011719 31.25 187.5 C 31.25 101.320312 101.320312 31.25 187.5 31.25 C 213.011719 31.25 237.304688 37.964844 259.277344 49.4375 L 282.714844 26.125 C 254.152344 9.277344 221.558594 0 187.5 0 Z M 348.265625 4.640625 L 4.640625 348.265625 L 26.613281 370.484375 L 66.527344 330.566406 C 99.242188 358.277344 141.480469 375 187.5 375 C 290.894531 375 375 290.894531 375 187.5 C 375 141.480469 358.15625 99.242188 330.566406 66.527344 L 370.484375 26.613281 Z M 307.984375 89.113281 C 330.078125 116.089844 343.75 149.902344 343.75 187.5 C 343.75 274.046875 274.046875 343.75 187.5 343.75 C 149.902344 343.75 116.089844 330.078125 89.113281 307.984375 Z M 307.984375 89.113281 " fill-opacity="1" fill-rule="nonzero"/></svg>