<svg xmlns="http://www.w3.org/2000/svg" xmlns:xlink="http://www.w3.org/1999/xlink" width="500" zoomAndPan="magnify" viewBox="0 0 375 374.999991" height="500" preserveAspectRatio="xMidYMid meet" version="1.0"><defs><clipPath id="066d41d564"><path d="M 0 79 L 368 79 L 368 322.5 L 0 322.5 Z M 0 79 " clip-rule="nonzero"/></clipPath></defs><g clip-path="url(#066d41d564)"><path fill="#000000" d="M 339.339844 83.738281 C 335.300781 81.726562 330.242188 80.714844 330.242188 80.714844 C 328.453125 80.324219 324.40625 79.734375 321.496094 79.734375 C 300.226562 79.734375 277.792969 98.601562 265.671875 126.695312 C 258.675781 142.910156 256.140625 159.992188 258.53125 174.804688 C 260.964844 189.847656 268.210938 201.703125 278.949219 207.15625 L 267.78125 231.925781 C 265.4375 232.609375 263.132812 233.53125 260.988281 234.949219 L 218.054688 263.375 C 218.054688 263.375 156.496094 170.695312 156.339844 170.484375 C 149.09375 157.492188 126.007812 144.585938 103.828125 150.8125 C 51.613281 166.753906 5.578125 264.601562 0.0664062 322.414062 L 158.382812 322.457031 L 161.300781 283.824219 L 115.347656 213.730469 C 114.015625 211.707031 114.582031 208.992188 116.609375 207.660156 C 118.628906 206.328125 121.339844 206.90625 122.671875 208.921875 L 191.386719 312.78125 C 196.214844 319.125 203.570312 322.578125 211.09375 322.578125 C 215.800781 322.578125 220.554688 321.242188 224.769531 318.445312 L 288.386719 276.332031 C 299.8125 268.769531 302.945312 253.371094 295.371094 241.941406 C 292.390625 237.4375 288.171875 234.277344 283.480469 232.496094 L 292.089844 213.40625 C 296 214.671875 300.015625 215.3125 304.070312 215.3125 C 312.742188 215.3125 321.5625 212.429688 329.902344 206.761719 C 341.9375 198.578125 352.589844 184.746094 359.894531 167.824219 C 375.234375 132.265625 365.527344 96.789062 339.339844 83.738281 Z M 337.9375 157.875 C 328.078125 180.730469 309.417969 197.3125 293.5625 197.3125 C 290.714844 197.3125 288.019531 196.769531 285.53125 195.695312 C 277.90625 192.414062 272.683594 184.285156 270.824219 172.808594 C 268.804688 160.3125 271.039062 145.6875 277.101562 131.621094 C 286.964844 108.773438 305.632812 92.183594 321.496094 92.183594 C 324.328125 92.183594 327.03125 92.726562 329.5 93.789062 C 345.988281 100.90625 349.847656 130.257812 337.9375 157.875 Z M 337.9375 157.875 " fill-opacity="1" fill-rule="nonzero"/></g><path fill="#000000" d="M 163.183594 157.992188 C 188.175781 172.800781 220.46875 164.523438 235.261719 139.539062 C 250.082031 114.527344 241.808594 82.238281 216.824219 67.4375 C 191.789062 52.609375 159.527344 60.886719 144.707031 85.902344 C 129.898438 110.886719 138.152344 143.171875 163.183594 157.992188 Z M 163.183594 157.992188 " fill-opacity="1" fill-rule="nonzero"/><path fill="#000000" d="M 306.808594 121.09375 C 311.390625 116.644531 316.089844 114.753906 319.691406 115.90625 C 321.796875 116.570312 323.574219 118.242188 324.964844 120.875 C 325.984375 122.769531 328.328125 123.5 330.238281 122.484375 C 332.140625 121.476562 332.859375 119.113281 331.851562 117.214844 C 329.496094 112.773438 326.101562 109.753906 322.042969 108.472656 C 315.519531 106.398438 308.179688 108.894531 301.378906 115.492188 C 295.199219 121.492188 290.03125 130.34375 286.824219 140.421875 C 284.859375 146.636719 283.734375 153.066406 283.574219 159.007812 C 283.511719 161.160156 285.214844 162.949219 287.367188 163.007812 C 287.402344 163.007812 287.441406 163.007812 287.46875 163.007812 C 289.578125 163.007812 291.304688 161.332031 291.363281 159.214844 C 291.507812 153.992188 292.503906 148.308594 294.261719 142.777344 C 297.078125 133.90625 301.53125 126.207031 306.808594 121.09375 Z M 306.808594 121.09375 " fill-opacity="1" fill-rule="nonzero"/></svg>